<?xml version="1.0" encoding="UTF-8"?>
<!DOCTYPE svg PUBLIC "-//W3C//DTD SVG 1.1//EN" "http://www.w3.org/Graphics/SVG/1.1/DTD/svg11.dtd">
<svg xmlns="http://www.w3.org/2000/svg" version="1.1" width="150px" height="150px" style="shape-rendering:geometricPrecision; text-rendering:geometricPrecision; image-rendering:optimizeQuality; fill-rule:evenodd; clip-rule:evenodd" xmlns:xlink="http://www.w3.org/1999/xlink">
<g><path style="opacity:1" fill="#342e2b" d="M 63.5,-0.5 C 70.5,-0.5 77.5,-0.5 84.5,-0.5C 103.032,2.52139 118.532,11.1881 131,25.5C 133.483,28.1393 135.316,31.1393 136.5,34.5C 110.511,1.41939 78.178,-6.74727 39.5,10C 26.9756,17.3584 16.9756,27.1917 9.5,39.5C 17.4375,23.3994 29.7708,11.8994 46.5,5C 52.254,3.02525 57.9207,1.19192 63.5,-0.5 Z"/></g>
<g><path style="opacity:1" fill="#ebd3b9" d="M 136.5,34.5 C 136.75,36.674 137.75,38.3406 139.5,39.5C 139.66,41.153 140.326,42.4863 141.5,43.5C 141.402,45.5529 142.069,47.2196 143.5,48.5C 144.467,53.7119 145.8,58.7119 147.5,63.5C 149.959,102.447 133.293,129.281 97.5,144C 56.5881,153.768 26.2547,140.268 6.5,103.5C 6.76781,101.901 6.43448,100.568 5.5,99.5C 5.12487,97.3024 4.4582,95.3024 3.5,93.5C 3.5,93.1667 3.5,92.8333 3.5,92.5C 0.575261,78.7426 0.908594,65.0759 4.5,51.5C 5.11742,51.3893 5.61742,51.056 6,50.5C 6.84935,47.4786 7.68268,44.4786 8.5,41.5C 8.32842,40.5084 8.66175,39.8417 9.5,39.5C 16.9756,27.1917 26.9756,17.3584 39.5,10C 78.178,-6.74727 110.511,1.41939 136.5,34.5 Z"/></g>
<g><path style="opacity:1" fill="#c5652b" d="M 108.5,12.5 C 106.901,12.2322 105.568,12.5655 104.5,13.5C 103.773,15.9538 102.773,18.2872 101.5,20.5C 100.833,20.5 100.167,20.5 99.5,20.5C 101.485,17.8791 102.485,14.8791 102.5,11.5C 99.507,10.5139 96.507,9.51391 93.5,8.5C 93.7359,11.6085 93.4025,14.6085 92.5,17.5C 91.8333,17.5 91.1667,17.5 90.5,17.5C 90.8333,14.1667 91.1667,10.8333 91.5,7.5C 90.1667,7.5 88.8333,7.5 87.5,7.5C 87.6556,10.0661 87.3223,12.5661 86.5,15C 87.5727,15.2066 88.5727,16.04 89.5,17.5C 88.1266,17.3433 86.7932,17.51 85.5,18C 86.4158,18.2784 87.0825,18.7784 87.5,19.5C 80.1506,18.8001 72.8173,18.4667 65.5,18.5C 71.5,17.8333 77.5,17.1667 83.5,16.5C 86.1247,15.5423 86.1247,14.3757 83.5,13C 86.028,11.9826 86.028,10.8159 83.5,9.5C 84.5,8.83333 85.5,8.16667 86.5,7.5C 84.8647,6.31916 83.198,6.31916 81.5,7.5C 80.4763,6.14682 79.143,5.48015 77.5,5.5C 75.6965,4.83798 73.6965,4.50465 71.5,4.5C 69.0478,4.53907 67.0478,5.20574 65.5,6.5C 63.8356,7.94881 63.0023,9.94881 63,12.5C 61.98,11.1095 61.1466,9.6095 60.5,8C 59.2068,7.50999 57.8734,7.34332 56.5,7.5C 56.5,8.5 56.5,9.5 56.5,10.5C 55.596,9.79105 55.2627,8.79105 55.5,7.5C 53.5714,7.23082 51.9047,7.73082 50.5,9C 51.4158,9.27842 52.0825,9.77842 52.5,10.5C 51.4531,11.8879 50.1198,12.7213 48.5,13C 48.9991,18.4651 50.6658,19.2984 53.5,15.5C 54.2674,16.172 54.9341,17.0053 55.5,18C 52.9036,19.1356 50.237,19.969 47.5,20.5C 47.9175,19.7784 48.5842,19.2784 49.5,19C 47.9938,16.6667 46.3271,14.5 44.5,12.5C 43.7022,14.0777 43.2022,15.7444 43,17.5C 42.1667,16.5 41.3333,15.5 40.5,14.5C 34.4214,16.9193 33.9214,20.2526 39,24.5C 39.3333,23.8333 39.6667,23.1667 40,22.5C 40.7083,23.3805 41.5416,24.0472 42.5,24.5C 42.8212,26.0481 43.8212,26.7148 45.5,26.5C 37.5739,30.7578 31.2406,36.7578 26.5,44.5C 26.5,43.5 26.5,42.5 26.5,41.5C 25.209,41.7373 24.209,41.404 23.5,40.5C 25.3464,40.7778 26.6798,40.1112 27.5,38.5C 26.6086,37.4104 25.6086,37.4104 24.5,38.5C 23.7492,37.624 23.2492,36.624 23,35.5C 22.586,35.9574 22.086,36.2907 21.5,36.5C 20.2888,35.7261 20.2888,34.8928 21.5,34C 20.0347,33.3987 19.0347,33.8987 18.5,35.5C 19.5244,36.8518 20.5244,38.1851 21.5,39.5C 21.178,41.7224 21.8446,43.5557 23.5,45C 22.0024,45.5847 21.0024,45.0847 20.5,43.5C 21.1667,39.5 19.5,37.8333 15.5,38.5C 15.5,39.5 15.5,40.5 15.5,41.5C 14.1667,40.1667 12.8333,40.1667 11.5,41.5C 30.4775,9.19665 58.4775,-2.63669 95.5,6C 100.204,7.68547 104.538,9.85214 108.5,12.5 Z"/></g>
<g><path style="opacity:1" fill="#6c3011" d="M 90.5,17.5 C 90.1667,17.5 89.8333,17.5 89.5,17.5C 88.5727,16.04 87.5727,15.2066 86.5,15C 87.3223,12.5661 87.6556,10.0661 87.5,7.5C 88.8333,7.5 90.1667,7.5 91.5,7.5C 91.1667,10.8333 90.8333,14.1667 90.5,17.5 Z"/></g>
<g><path style="opacity:1" fill="#79300d" d="M 77.5,5.5 C 79.143,5.48015 80.4763,6.14682 81.5,7.5C 83.198,6.31916 84.8647,6.31916 86.5,7.5C 85.5,8.16667 84.5,8.83333 83.5,9.5C 86.028,10.8159 86.028,11.9826 83.5,13C 86.1247,14.3757 86.1247,15.5423 83.5,16.5C 81.87,14.9739 81.0367,12.9739 81,10.5C 79.2866,11.8782 77.9533,13.5448 77,15.5C 76.1925,11.9733 76.3592,8.63995 77.5,5.5 Z"/></g>
<g><path style="opacity:1" fill="#63300d" d="M 52.5,10.5 C 53.3007,12.0418 53.634,13.7085 53.5,15.5C 50.6658,19.2984 48.9991,18.4651 48.5,13C 50.1198,12.7213 51.4531,11.8879 52.5,10.5 Z"/></g>
<g><path style="opacity:1" fill="#773311" d="M 65.5,6.5 C 66.5961,10.2887 67.2627,10.2887 67.5,6.5C 69.4109,6.5743 70.5776,7.5743 71,9.5C 71.3333,8.83333 71.6667,8.16667 72,7.5C 72.6667,9.83333 72.6667,12.1667 72,14.5C 70.0588,10.4463 69.2254,10.7797 69.5,15.5C 66.1927,15.4615 63.0261,16.1282 60,17.5C 58.168,15.4522 57.0013,13.1189 56.5,10.5C 56.5,9.5 56.5,8.5 56.5,7.5C 57.8734,7.34332 59.2068,7.50999 60.5,8C 61.1466,9.6095 61.98,11.1095 63,12.5C 63.0023,9.94881 63.8356,7.94881 65.5,6.5 Z"/></g>
<g><path style="opacity:1" fill="#97461a" d="M 99.5,20.5 C 96.9823,19.7362 94.649,18.7362 92.5,17.5C 93.4025,14.6085 93.7359,11.6085 93.5,8.5C 96.507,9.51391 99.507,10.5139 102.5,11.5C 102.485,14.8791 101.485,17.8791 99.5,20.5 Z"/></g>
<g><path style="opacity:1" fill="#d86622" d="M 77.5,5.5 C 76.3592,8.63995 76.1925,11.9733 77,15.5C 77.9533,13.5448 79.2866,11.8782 81,10.5C 81.0367,12.9739 81.87,14.9739 83.5,16.5C 77.5,17.1667 71.5,17.8333 65.5,18.5C 58.4122,20.1941 51.7455,22.8608 45.5,26.5C 43.8212,26.7148 42.8212,26.0481 42.5,24.5C 44.8263,23.8553 46.493,22.522 47.5,20.5C 50.237,19.969 52.9036,19.1356 55.5,18C 54.9341,17.0053 54.2674,16.172 53.5,15.5C 53.634,13.7085 53.3007,12.0418 52.5,10.5C 52.0825,9.77842 51.4158,9.27842 50.5,9C 51.9047,7.73082 53.5714,7.23082 55.5,7.5C 55.2627,8.79105 55.596,9.79105 56.5,10.5C 57.0013,13.1189 58.168,15.4522 60,17.5C 63.0261,16.1282 66.1927,15.4615 69.5,15.5C 70.8333,15.5 72.1667,15.5 73.5,15.5C 73.6646,12.4816 73.498,9.48162 73,6.5C 71.0565,5.19299 69.2232,5.19299 67.5,6.5C 67.2627,10.2887 66.5961,10.2887 65.5,6.5C 67.0478,5.20574 69.0478,4.53907 71.5,4.5C 73.6965,4.50465 75.6965,4.83798 77.5,5.5 Z"/></g>
<g><path style="opacity:1" fill="#a74a1c" d="M 67.5,6.5 C 69.2232,5.19299 71.0565,5.19299 73,6.5C 73.498,9.48162 73.6646,12.4816 73.5,15.5C 72.1667,15.5 70.8333,15.5 69.5,15.5C 69.2254,10.7797 70.0588,10.4463 72,14.5C 72.6667,12.1667 72.6667,9.83333 72,7.5C 71.6667,8.16667 71.3333,8.83333 71,9.5C 70.5776,7.5743 69.4109,6.5743 67.5,6.5 Z"/></g>
<g><path style="opacity:1" fill="#6b2801" d="M 104.5,13.5 C 104.592,16.0748 104.592,18.7414 104.5,21.5C 102.948,22.7979 101.948,22.4646 101.5,20.5C 102.773,18.2872 103.773,15.9538 104.5,13.5 Z"/></g>
<g><path style="opacity:1" fill="#c96427" d="M 104.5,13.5 C 105.568,12.5655 106.901,12.2322 108.5,12.5C 119.426,18.0941 128.093,26.0941 134.5,36.5C 133.542,36.0472 132.708,35.3805 132,34.5C 131.34,36.3237 130.173,37.657 128.5,38.5C 128.821,37.1825 129.154,35.8492 129.5,34.5C 129.267,33.0683 128.6,32.5683 127.5,33C 125.5,34.6667 123.5,36.3333 121.5,38C 122.471,39.4813 123.804,40.3146 125.5,40.5C 124.791,41.404 123.791,41.7373 122.5,41.5C 122.5,42.5 122.5,43.5 122.5,44.5C 113.797,32.1401 102.131,23.8067 87.5,19.5C 87.0825,18.7784 86.4158,18.2784 85.5,18C 86.7932,17.51 88.1266,17.3433 89.5,17.5C 89.8333,17.5 90.1667,17.5 90.5,17.5C 91.1667,17.5 91.8333,17.5 92.5,17.5C 94.649,18.7362 96.9823,19.7362 99.5,20.5C 100.167,20.5 100.833,20.5 101.5,20.5C 101.948,22.4646 102.948,22.7979 104.5,21.5C 104.592,18.7414 104.592,16.0748 104.5,13.5 Z"/></g>
<g><path style="opacity:1" fill="#7f3a17" d="M 108.5,16.5 C 109.833,16.5 111.167,16.5 112.5,16.5C 112.5,17.5 112.5,18.5 112.5,19.5C 114.711,19.9668 116.711,20.9668 118.5,22.5C 116.851,24.6499 115.018,26.6499 113,28.5C 112.667,27.5 112.333,26.5 112,25.5C 110.044,25.7845 107.877,25.7845 105.5,25.5C 105.129,21.9966 106.129,18.9966 108.5,16.5 Z"/></g>
<g><path style="opacity:1" fill="#7f3b18" d="M 47.5,20.5 C 46.493,22.522 44.8263,23.8553 42.5,24.5C 41.5416,24.0472 40.7083,23.3805 40,22.5C 39.6667,23.1667 39.3333,23.8333 39,24.5C 33.9214,20.2526 34.4214,16.9193 40.5,14.5C 41.3333,15.5 42.1667,16.5 43,17.5C 43.2022,15.7444 43.7022,14.0777 44.5,12.5C 46.3271,14.5 47.9938,16.6667 49.5,19C 48.5842,19.2784 47.9175,19.7784 47.5,20.5 Z"/></g>
<g><path style="opacity:1" fill="#732802" d="M 30.5,32.5 C 29.5423,31.0384 28.3756,29.7051 27,28.5C 26.51,27.2068 26.3433,25.8734 26.5,24.5C 29.2048,24.3802 29.8715,25.3802 28.5,27.5C 29.7709,30.5974 31.2709,30.9307 33,28.5C 35.0564,31.309 34.2231,32.6423 30.5,32.5 Z"/></g>
<g><path style="opacity:1" fill="#6f330f" d="M 31.5,20.5 C 34.5821,22.0748 37.2488,24.2415 39.5,27C 37.8988,27.2734 36.3988,27.7734 35,28.5C 33.533,25.9211 32.3664,23.2544 31.5,20.5 Z"/></g>
<g><path style="opacity:1" fill="#edc6a4" d="M 65.5,18.5 C 72.8173,18.4667 80.1506,18.8001 87.5,19.5C 102.131,23.8067 113.797,32.1401 122.5,44.5C 122.833,45.1667 123.167,45.8333 123.5,46.5C 127.361,53.257 129.695,60.5903 130.5,68.5C 130.631,69.3764 130.298,70.0431 129.5,70.5C 127.84,69.8284 126.507,68.8284 125.5,67.5C 124.775,56.6046 120.441,47.6046 112.5,40.5C 109.872,36.3369 106.205,33.3369 101.5,31.5C 89.2626,23.0369 75.9292,20.7035 61.5,24.5C 59.4458,24.3653 57.7791,25.032 56.5,26.5C 52.7011,27.0147 49.7011,28.6814 47.5,31.5C 45.5165,31.3832 43.8498,32.0499 42.5,33.5C 40.0815,36.2413 37.7481,38.908 35.5,41.5C 34.1001,42.0998 33.1001,43.0998 32.5,44.5C 28.5015,49.3841 25.8348,55.0508 24.5,61.5C 23.5091,65.4454 23.1758,69.4454 23.5,73.5C 23.5,75.1667 23.5,76.8333 23.5,78.5C 21.7162,78.1075 20.0495,77.4408 18.5,76.5C 18.5,76.1667 18.5,75.8333 18.5,75.5C 22.4844,77.021 23.1511,76.1877 20.5,73C 21.3081,72.6924 21.9747,72.1924 22.5,71.5C 21.8075,70.4822 21.1408,69.4822 20.5,68.5C 19.1075,62.6376 19.7741,56.9709 22.5,51.5C 24.0985,49.3012 25.4318,46.9679 26.5,44.5C 31.2406,36.7578 37.5739,30.7578 45.5,26.5C 51.7455,22.8608 58.4122,20.1941 65.5,18.5 Z"/></g>
<g><path style="opacity:1" fill="#d35131" d="M 101.5,31.5 C 101.5,32.8333 100.833,33.5 99.5,33.5C 99.0269,32.0937 98.0269,31.427 96.5,31.5C 96.5858,30.5041 96.2524,29.6708 95.5,29C 89.6609,26.8736 83.6609,25.3736 77.5,24.5C 77.9227,26.7812 77.256,28.4479 75.5,29.5C 74.7961,31.3442 73.4628,31.8442 71.5,31C 70.5769,28.9592 70.2436,26.7925 70.5,24.5C 67.5,24.5 64.5,24.5 61.5,24.5C 75.9292,20.7035 89.2626,23.0369 101.5,31.5 Z"/></g>
<g><path style="opacity:1" fill="#76320f" d="M 118.5,24.5 C 119.833,24.5 121.167,24.5 122.5,24.5C 122.374,26.1998 121.707,27.6998 120.5,29C 120.833,29.5 121.167,30 121.5,30.5C 125.333,28.6617 126.499,29.3283 125,32.5C 123.667,33.8333 122.333,35.1667 121,36.5C 119.676,33.7563 117.509,32.423 114.5,32.5C 114.343,31.1266 114.51,29.7932 115,28.5C 116.376,27.2949 117.542,25.9616 118.5,24.5 Z"/></g>
<g><path style="opacity:1" fill="#d45826" d="M 56.5,26.5 C 55.5442,27.6594 54.5442,28.8261 53.5,30C 55.133,32.8667 54.7997,35.3667 52.5,37.5C 52.1667,37.5 51.8333,37.5 51.5,37.5C 49.8958,36.713 49.2291,35.3797 49.5,33.5C 48.5,33.1667 47.8333,32.5 47.5,31.5C 49.7011,28.6814 52.7011,27.0147 56.5,26.5 Z"/></g>
<g><path style="opacity:1" fill="#facb4e" d="M 49.5,33.5 C 50.5426,31.1481 51.8759,30.9815 53.5,33C 52.3181,34.7683 50.9848,34.9349 49.5,33.5 Z"/></g>
<g><path style="opacity:1" fill="#e53131" d="M 61.5,24.5 C 64.5,24.5 67.5,24.5 70.5,24.5C 70.2436,26.7925 70.5769,28.9592 71.5,31C 73.4628,31.8442 74.7961,31.3442 75.5,29.5C 77.256,28.4479 77.9227,26.7812 77.5,24.5C 83.6609,25.3736 89.6609,26.8736 95.5,29C 96.2524,29.6708 96.5858,30.5041 96.5,31.5C 98.0269,31.427 99.0269,32.0937 99.5,33.5C 100.833,33.5 101.5,32.8333 101.5,31.5C 106.205,33.3369 109.872,36.3369 112.5,40.5C 112.5,41.5 112.5,42.5 112.5,43.5C 111.5,43.5 110.5,43.5 109.5,43.5C 109.38,45.1986 109.046,46.8653 108.5,48.5C 108.942,49.7387 109.609,50.7387 110.5,51.5C 108.918,51.5246 107.251,51.6912 105.5,52C 107.476,49.4897 107.643,46.9897 106,44.5C 105.566,48.2229 104.732,48.3895 103.5,45C 104.713,42.359 103.713,41.1924 100.5,41.5C 100.287,44.4509 100.954,47.1175 102.5,49.5C 97.4911,51.9707 92.3245,52.9707 87,52.5C 86.0691,50.5405 85.2357,48.5405 84.5,46.5C 86.686,45.7792 88.8526,45.1125 91,44.5C 91.6667,45.1667 92.3333,45.8333 93,46.5C 95.0408,45.5769 97.2075,45.2436 99.5,45.5C 99.4484,42.6538 98.4484,40.3204 96.5,38.5C 82.0095,37.504 67.3428,37.1707 52.5,37.5C 54.7997,35.3667 55.133,32.8667 53.5,30C 54.5442,28.8261 55.5442,27.6594 56.5,26.5C 57.7791,25.032 59.4458,24.3653 61.5,24.5 Z"/></g>
<g><path style="opacity:1" fill="#fab94e" d="M 75.5,29.5 C 71.1862,29.2279 70.6862,27.8945 74,25.5C 75.1882,26.5634 75.6882,27.8967 75.5,29.5 Z"/></g>
<g><path style="opacity:1" fill="#f7b746" d="M 96.5,31.5 C 98.0269,31.427 99.0269,32.0937 99.5,33.5C 98.8166,35.1765 97.4832,35.8432 95.5,35.5C 95.2322,33.901 95.5655,32.5676 96.5,31.5 Z"/></g>
<g><path style="opacity:1" fill="#683113" d="M 30.5,32.5 C 29.8163,34.1852 28.483,35.1852 26.5,35.5C 24.6115,34.396 22.9448,33.0627 21.5,31.5C 22.727,30.4096 23.5604,29.0762 24,27.5C 25.7772,29.7899 27.9438,31.4566 30.5,32.5 Z"/></g>
<g><path style="opacity:1" fill="#362e2e" d="M 136.5,34.5 C 138.727,35.4006 139.727,37.0672 139.5,39.5C 137.75,38.3406 136.75,36.674 136.5,34.5 Z"/></g>
<g><path style="opacity:1" fill="#6b2a04" d="M 23.5,40.5 C 23.1583,39.6618 22.4916,39.3284 21.5,39.5C 20.5244,38.1851 19.5244,36.8518 18.5,35.5C 19.0347,33.8987 20.0347,33.3987 21.5,34C 20.2888,34.8928 20.2888,35.7261 21.5,36.5C 22.086,36.2907 22.586,35.9574 23,35.5C 23.2492,36.624 23.7492,37.624 24.5,38.5C 25.6086,37.4104 26.6086,37.4104 27.5,38.5C 26.6798,40.1112 25.3464,40.7778 23.5,40.5 Z"/></g>
<g><path style="opacity:1" fill="#723415" d="M 128.5,38.5 C 127.29,38.9321 126.29,39.5987 125.5,40.5C 123.804,40.3146 122.471,39.4813 121.5,38C 123.5,36.3333 125.5,34.6667 127.5,33C 128.6,32.5683 129.267,33.0683 129.5,34.5C 129.154,35.8492 128.821,37.1825 128.5,38.5 Z"/></g>
<g><path style="opacity:1" fill="#9c2a2b" d="M 52.5,37.5 C 67.3428,37.1707 82.0095,37.504 96.5,38.5C 96.7678,40.099 96.4345,41.4324 95.5,42.5C 81.2021,41.4646 66.8687,41.4646 52.5,42.5C 52.5,40.8333 52.5,39.1667 52.5,37.5 Z"/></g>
<g><path style="opacity:1" fill="#e26219" d="M 134.5,36.5 C 134.5,37.5 134.5,38.5 134.5,39.5C 133.5,39.5 132.5,39.5 131.5,39.5C 130.115,42.0284 128.449,44.3617 126.5,46.5C 125.5,46.5 124.5,46.5 123.5,46.5C 123.167,45.8333 122.833,45.1667 122.5,44.5C 122.5,43.5 122.5,42.5 122.5,41.5C 123.791,41.7373 124.791,41.404 125.5,40.5C 126.29,39.5987 127.29,38.9321 128.5,38.5C 130.173,37.657 131.34,36.3237 132,34.5C 132.708,35.3805 133.542,36.0472 134.5,36.5 Z"/></g>
<g><path style="opacity:1" fill="#6c2a08" d="M 20.5,43.5 C 18.4862,43.6085 16.8195,42.9418 15.5,41.5C 15.5,40.5 15.5,39.5 15.5,38.5C 19.5,37.8333 21.1667,39.5 20.5,43.5 Z"/></g>
<g><path style="opacity:1" fill="#2f2a1d" d="M 139.5,39.5 C 141.104,40.287 141.771,41.6203 141.5,43.5C 140.326,42.4863 139.66,41.153 139.5,39.5 Z"/></g>
<g><path style="opacity:1" fill="#d65921" d="M 35.5,41.5 C 36.1834,43.1765 37.5168,43.8432 39.5,43.5C 39.5,45.5 39.5,47.5 39.5,49.5C 37.1137,49.7413 35.1137,49.0746 33.5,47.5C 33.4431,46.391 33.1098,45.391 32.5,44.5C 33.1001,43.0998 34.1001,42.0998 35.5,41.5 Z"/></g>
<g><path style="opacity:1" fill="#812f05" d="M 134.5,39.5 C 134.539,40.5832 134.873,41.5832 135.5,42.5C 132.335,43.585 129.335,44.9183 126.5,46.5C 128.449,44.3617 130.115,42.0284 131.5,39.5C 132.5,39.5 133.5,39.5 134.5,39.5 Z"/></g>
<g><path style="opacity:1" fill="#cb3f42" d="M 51.5,37.5 C 51.8333,37.5 52.1667,37.5 52.5,37.5C 52.5,39.1667 52.5,40.8333 52.5,42.5C 66.8687,41.4646 81.2021,41.4646 95.5,42.5C 90.0247,43.4889 84.358,43.8222 78.5,43.5C 78.3532,46.9434 80.0199,48.9434 83.5,49.5C 84.6302,50.6223 85.2969,51.9557 85.5,53.5C 84.391,53.4431 83.391,53.1098 82.5,52.5C 80.089,50.0796 77.4224,48.0796 74.5,46.5C 71.5818,47.7466 69.2485,49.7466 67.5,52.5C 65.8333,53.8333 64.1667,55.1667 62.5,56.5C 60.8333,56.5 59.1667,56.5 57.5,56.5C 55.2143,56.405 53.2143,55.7384 51.5,54.5C 55.226,54.8226 58.8927,54.4892 62.5,53.5C 65.4834,51.1832 68.1501,48.5166 70.5,45.5C 69.624,44.7492 68.624,44.2492 67.5,44C 62.1771,43.5006 56.8437,43.334 51.5,43.5C 51.5,41.5 51.5,39.5 51.5,37.5 Z"/></g>
<g><path style="opacity:1" fill="#d8631d" d="M 21.5,39.5 C 22.4916,39.3284 23.1583,39.6618 23.5,40.5C 24.209,41.404 25.209,41.7373 26.5,41.5C 26.5,42.5 26.5,43.5 26.5,44.5C 25.4318,46.9679 24.0985,49.3012 22.5,51.5C 21.391,51.4431 20.391,51.1098 19.5,50.5C 20.0906,49.8485 20.7573,49.1818 21.5,48.5C 18.1222,47.4095 14.7889,46.4095 11.5,45.5C 11.5,44.1667 11.5,42.8333 11.5,41.5C 12.8333,40.1667 14.1667,40.1667 15.5,41.5C 16.8195,42.9418 18.4862,43.6085 20.5,43.5C 21.0024,45.0847 22.0024,45.5847 23.5,45C 21.8446,43.5557 21.178,41.7224 21.5,39.5 Z"/></g>
<g><path style="opacity:1" fill="#dc3337" d="M 96.5,38.5 C 98.4484,40.3204 99.4484,42.6538 99.5,45.5C 97.2075,45.2436 95.0408,45.5769 93,46.5C 92.3333,45.8333 91.6667,45.1667 91,44.5C 88.8526,45.1125 86.686,45.7792 84.5,46.5C 85.2357,48.5405 86.0691,50.5405 87,52.5C 92.3245,52.9707 97.4911,51.9707 102.5,49.5C 103.622,51.2884 103.789,53.2884 103,55.5C 99.0163,58.8023 95.8496,62.6356 93.5,67C 94.3081,67.3076 94.9747,67.8076 95.5,68.5C 93.7219,68.5693 91.8886,68.9026 90,69.5C 89.2375,73.5874 89.4042,77.5874 90.5,81.5C 89.5041,81.5858 88.6708,81.2524 88,80.5C 86.9548,75.2145 87.4548,70.2145 89.5,65.5C 89.8333,64.5 90.5,63.8333 91.5,63.5C 95.4154,61.2567 98.7488,58.2567 101.5,54.5C 100.5,54.1667 99.5,53.8333 98.5,53.5C 96.6455,53.3402 95.3121,54.0069 94.5,55.5C 91.4467,56.4237 88.4467,56.4237 85.5,55.5C 85.5,54.8333 85.5,54.1667 85.5,53.5C 85.2969,51.9557 84.6302,50.6223 83.5,49.5C 80.0199,48.9434 78.3532,46.9434 78.5,43.5C 84.358,43.8222 90.0247,43.4889 95.5,42.5C 96.4345,41.4324 96.7678,40.099 96.5,38.5 Z"/></g>
<g><path style="opacity:1" fill="#373234" d="M 141.5,43.5 C 143.213,44.6354 143.88,46.302 143.5,48.5C 142.069,47.2196 141.402,45.5529 141.5,43.5 Z"/></g>
<g><path style="opacity:1" fill="#5e5248" d="M 8.5,41.5 C 7.68268,44.4786 6.84935,47.4786 6,50.5C 5.61742,51.056 5.11742,51.3893 4.5,51.5C 4.87234,47.7029 6.20567,44.3695 8.5,41.5 Z"/></g>
<g><path style="opacity:1" fill="#fac248" d="M 36.5,44.5 C 38.1042,45.287 38.7709,46.6203 38.5,48.5C 37.5,48.5 36.5,48.5 35.5,48.5C 35.4326,47.0413 35.7659,45.7079 36.5,44.5 Z"/></g>
<g><path style="opacity:1" fill="#653431" d="M 82.5,52.5 C 82.1034,53.525 81.4368,53.6917 80.5,53C 78.6499,50.9824 76.6499,49.1491 74.5,47.5C 72.4615,48.2768 71.7948,49.4435 72.5,51C 72,51.5 71.5,52 71,52.5C 70.0138,51.8288 68.8471,51.8288 67.5,52.5C 69.2485,49.7466 71.5818,47.7466 74.5,46.5C 77.4224,48.0796 80.089,50.0796 82.5,52.5 Z"/></g>
<g><path style="opacity:1" fill="#6f3110" d="M 11.5,45.5 C 14.7889,46.4095 18.1222,47.4095 21.5,48.5C 20.7573,49.1818 20.0906,49.8485 19.5,50.5C 19.2648,51.0967 18.7648,51.4301 18,51.5C 16.1208,49.9872 13.9541,49.3205 11.5,49.5C 11.5,48.1667 11.5,46.8333 11.5,45.5 Z"/></g>
<g><path style="opacity:1" fill="#403a33" d="M 143.5,48.5 C 146.02,53.0783 147.353,58.0783 147.5,63.5C 145.8,58.7119 144.467,53.7119 143.5,48.5 Z"/></g>
<g><path style="opacity:1" fill="#c7652b" d="M 11.5,41.5 C 11.5,42.8333 11.5,44.1667 11.5,45.5C 11.5,46.8333 11.5,48.1667 11.5,49.5C 13.9541,49.3205 16.1208,49.9872 18,51.5C 18.7648,51.4301 19.2648,51.0967 19.5,50.5C 20.391,51.1098 21.391,51.4431 22.5,51.5C 19.7741,56.9709 19.1075,62.6376 20.5,68.5C 18.6565,70.2789 17.9898,72.6122 18.5,75.5C 18.5,75.8333 18.5,76.1667 18.5,76.5C 18.4595,79.8806 18.7929,83.2139 19.5,86.5C 18.17,82.9164 16.8367,79.9164 15.5,77.5C 14.6236,77.6309 13.9569,77.2975 13.5,76.5C 14.4147,75.6721 15.0814,74.6721 15.5,73.5C 15.2144,70.2615 15.2144,67.0948 15.5,64C 13.2222,63.0138 10.8889,62.1805 8.5,61.5C 7.73791,62.6283 7.07124,63.7949 6.5,65C 8.73119,66.147 11.0645,67.147 13.5,68C 11.0481,68.2895 8.71477,68.9562 6.5,70C 13.4273,73.0302 13.0939,74.5302 5.5,74.5C 5.5,75.8333 5.5,77.1667 5.5,78.5C 8.83333,78.5 12.1667,78.5 15.5,78.5C 12.1244,80.0823 8.45777,80.7489 4.5,80.5C 4.5,81.8333 4.5,83.1667 4.5,84.5C 1.4516,69.2978 3.78494,54.9645 11.5,41.5 Z"/></g>
<g><path style="opacity:1" fill="#793110" d="M 9.5,51.5 C 12.3198,51.2475 14.9865,51.7475 17.5,53C 18.3366,54.0113 18.67,55.1779 18.5,56.5C 15.6802,56.7525 13.0135,56.2525 10.5,55C 9.66337,53.9887 9.33003,52.8221 9.5,51.5 Z"/></g>
<g><path style="opacity:1" fill="#e53033" d="M 47.5,31.5 C 47.8333,32.5 48.5,33.1667 49.5,33.5C 49.2291,35.3797 49.8958,36.713 51.5,37.5C 51.5,39.5 51.5,41.5 51.5,43.5C 56.8437,43.334 62.1771,43.5006 67.5,44C 68.624,44.2492 69.624,44.7492 70.5,45.5C 68.1501,48.5166 65.4834,51.1832 62.5,53.5C 58.8927,54.4892 55.226,54.8226 51.5,54.5C 50.2918,53.218 48.9584,53.218 47.5,54.5C 47.8627,55.1835 48.1961,55.8501 48.5,56.5C 48.5,57.8333 48.5,59.1667 48.5,60.5C 52.6243,60.7159 53.1243,61.7159 50,63.5C 48.8926,63.4148 47.8926,63.0814 47,62.5C 42.1422,64.6638 36.9756,65.9971 31.5,66.5C 29.7072,69.1973 27.3738,69.864 24.5,68.5C 26.0039,63.4946 27.5039,58.4946 29,53.5C 29.7911,50.896 31.2911,48.896 33.5,47.5C 35.1137,49.0746 37.1137,49.7413 39.5,49.5C 39.5,47.5 39.5,45.5 39.5,43.5C 37.5168,43.8432 36.1834,43.1765 35.5,41.5C 37.7481,38.908 40.0815,36.2413 42.5,33.5C 43.8498,32.0499 45.5165,31.3832 47.5,31.5 Z"/></g>
<g><path style="opacity:1" fill="#da4030" d="M 112.5,40.5 C 120.441,47.6046 124.775,56.6046 125.5,67.5C 125.806,70.3854 125.473,73.0521 124.5,75.5C 123.833,75.5 123.167,75.5 122.5,75.5C 124.944,69.9271 124.777,64.2605 122,58.5C 120.989,57.6634 119.822,57.33 118.5,57.5C 118.444,63.733 117.444,63.5663 115.5,57C 117.145,55.968 117.478,54.8013 116.5,53.5C 114.827,51.9137 112.827,51.2471 110.5,51.5C 109.609,50.7387 108.942,49.7387 108.5,48.5C 109.046,46.8653 109.38,45.1986 109.5,43.5C 110.5,43.5 111.5,43.5 112.5,43.5C 112.5,42.5 112.5,41.5 112.5,40.5 Z"/></g>
<g><path style="opacity:1" fill="#face46" d="M 110.5,45.5 C 111.5,45.5 112.5,45.5 113.5,45.5C 113.5,46.5 113.5,47.5 113.5,48.5C 112.5,48.5 111.5,48.5 110.5,48.5C 110.5,47.5 110.5,46.5 110.5,45.5 Z"/></g>
<g><path style="opacity:1" fill="#755c59" d="M 67.5,52.5 C 67.5858,53.4959 67.2524,54.3292 66.5,55C 67.7441,55.4561 68.5774,54.9561 69,53.5C 69.628,56.2445 68.628,58.2445 66,59.5C 64.7772,58.643 63.6106,57.643 62.5,56.5C 64.1667,55.1667 65.8333,53.8333 67.5,52.5 Z"/></g>
<g><path style="opacity:1" fill="#e73033" d="M 110.5,51.5 C 112.827,51.2471 114.827,51.9137 116.5,53.5C 117.478,54.8013 117.145,55.968 115.5,57C 117.444,63.5663 118.444,63.733 118.5,57.5C 119.822,57.33 120.989,57.6634 122,58.5C 124.777,64.2605 124.944,69.9271 122.5,75.5C 117.759,77.8472 113.093,80.1805 108.5,82.5C 102.69,83.7109 97.0233,83.7109 91.5,82.5C 91.5,81.8333 91.1667,81.5 90.5,81.5C 89.4042,77.5874 89.2375,73.5874 90,69.5C 91.8886,68.9026 93.7219,68.5693 95.5,68.5C 94.9747,67.8076 94.3081,67.3076 93.5,67C 95.8496,62.6356 99.0163,58.8023 103,55.5C 103.789,53.2884 103.622,51.2884 102.5,49.5C 100.954,47.1175 100.287,44.4509 100.5,41.5C 103.713,41.1924 104.713,42.359 103.5,45C 104.732,48.3895 105.566,48.2229 106,44.5C 107.643,46.9897 107.476,49.4897 105.5,52C 107.251,51.6912 108.918,51.5246 110.5,51.5 Z"/></g>
<g><path style="opacity:1" fill="#291413" d="M 51.5,54.5 C 53.2143,55.7384 55.2143,56.405 57.5,56.5C 59.5,59.1667 61.8333,61.5 64.5,63.5C 64.631,64.2389 64.4643,64.9056 64,65.5C 62.2599,63.0465 60.0933,61.5465 57.5,61C 59.0414,62.3712 60.3747,63.8712 61.5,65.5C 57.0954,62.6042 53.0954,59.1042 49.5,55C 50.0944,54.5357 50.7611,54.369 51.5,54.5 Z"/></g>
<g><path style="opacity:1" fill="#c0636a" d="M 85.5,55.5 C 88.4467,56.4237 91.4467,56.4237 94.5,55.5C 92.2722,56.3771 90.2722,57.7104 88.5,59.5C 88.1583,58.6618 87.4916,58.3284 86.5,58.5C 86.4431,57.391 86.1098,56.391 85.5,55.5 Z"/></g>
<g><path style="opacity:1" fill="#6b2504" d="M 7.5,56.5 C 9.57952,57.0444 11.5795,57.8777 13.5,59C 11.7818,59.346 10.1151,59.846 8.5,60.5C 7.57131,59.3112 7.23798,57.9778 7.5,56.5 Z"/></g>
<g><path style="opacity:1" fill="#582b2d" d="M 85.5,55.5 C 86.1098,56.391 86.4431,57.391 86.5,58.5C 85.528,59.7514 84.8614,59.418 84.5,57.5C 84.5427,56.5836 84.8761,55.9169 85.5,55.5 Z"/></g>
<g><path style="opacity:1" fill="#ce6e6f" d="M 91.5,63.5 C 93.9619,60.5361 96.6286,57.7028 99.5,55C 97.8925,55.0187 96.2259,55.1854 94.5,55.5C 95.3121,54.0069 96.6455,53.3402 98.5,53.5C 99.5,53.8333 100.5,54.1667 101.5,54.5C 98.7488,58.2567 95.4154,61.2567 91.5,63.5 Z"/></g>
<g><path style="opacity:1" fill="#9f8b8c" d="M 82.5,52.5 C 83.391,53.1098 84.391,53.4431 85.5,53.5C 85.5,54.1667 85.5,54.8333 85.5,55.5C 84.8761,55.9169 84.5427,56.5836 84.5,57.5C 84.8614,59.418 85.528,59.7514 86.5,58.5C 87.4916,58.3284 88.1583,58.6618 88.5,59.5C 86.5,62.1667 84.1667,64.5 81.5,66.5C 81.5,65.5 81.5,64.5 81.5,63.5C 79.901,63.2322 78.5676,63.5655 77.5,64.5C 76.8333,64.1667 76.1667,63.8333 75.5,63.5C 76.0798,65.7488 77.4131,67.4154 79.5,68.5C 79.1667,69.5 78.5,70.1667 77.5,70.5C 77.2172,69.7109 76.7172,69.0442 76,68.5C 73.9405,68.4459 71.7739,68.6126 69.5,69C 70.6872,67.9805 71.6872,66.8139 72.5,65.5C 72.3764,64.8933 72.0431,64.56 71.5,64.5C 70.2825,63.8386 68.9492,63.1719 67.5,62.5C 68.8334,61.3801 69.3334,60.0468 69,58.5C 67.264,60.0632 65.764,61.7299 64.5,63.5C 61.8333,61.5 59.5,59.1667 57.5,56.5C 59.1667,56.5 60.8333,56.5 62.5,56.5C 63.6106,57.643 64.7772,58.643 66,59.5C 68.628,58.2445 69.628,56.2445 69,53.5C 68.5774,54.9561 67.7441,55.4561 66.5,55C 67.2524,54.3292 67.5858,53.4959 67.5,52.5C 68.8471,51.8288 70.0138,51.8288 71,52.5C 71.5,52 72,51.5 72.5,51C 71.7948,49.4435 72.4615,48.2768 74.5,47.5C 76.6499,49.1491 78.6499,50.9824 80.5,53C 81.4368,53.6917 82.1034,53.525 82.5,52.5 Z"/></g>
<g><path style="opacity:1" fill="#514b4b" d="M 75.5,63.5 C 73.9519,63.1788 73.2852,62.1788 73.5,60.5C 69.7636,60.3399 69.7636,59.5066 73.5,58C 72.8333,57.6667 72.1667,57.3333 71.5,57C 72.6184,55.9264 73.6184,54.7598 74.5,53.5C 76.2344,56.2003 78.5677,58.2003 81.5,59.5C 81.2964,58.4706 81.7964,57.4706 83,56.5C 83.8077,58.5787 83.641,60.5787 82.5,62.5C 80.2706,61.4229 77.9372,60.7563 75.5,60.5C 75.5,61.5 75.5,62.5 75.5,63.5 Z"/></g>
<g><path style="opacity:1" fill="#363130" d="M 71.5,64.5 C 72.0431,64.56 72.3764,64.8933 72.5,65.5C 71.6872,66.8139 70.6872,67.9805 69.5,69C 71.7739,68.6126 73.9405,68.4459 76,68.5C 76.7172,69.0442 77.2172,69.7109 77.5,70.5C 75.1638,72.0728 75.1638,73.4061 77.5,74.5C 79.2553,77.4358 81.2553,80.2691 83.5,83C 82.7476,83.6708 82.4142,84.5041 82.5,85.5C 82.5,85.8333 82.5,86.1667 82.5,86.5C 81.8333,85.8333 81.1667,85.1667 80.5,84.5C 80.9232,81.876 79.5899,80.2093 76.5,79.5C 75.8333,78.8333 75.1667,78.1667 74.5,77.5C 74.0269,76.0937 73.0269,75.427 71.5,75.5C 70.4154,73.4131 68.7488,72.0798 66.5,71.5C 65.674,69.7356 64.3407,68.4023 62.5,67.5C 62.1667,67.5 61.8333,67.5 61.5,67.5C 61.5,66.8333 61.5,66.1667 61.5,65.5C 60.3747,63.8712 59.0414,62.3712 57.5,61C 60.0933,61.5465 62.2599,63.0465 64,65.5C 64.4643,64.9056 64.631,64.2389 64.5,63.5C 65.764,61.7299 67.264,60.0632 69,58.5C 69.3334,60.0468 68.8334,61.3801 67.5,62.5C 68.9492,63.1719 70.2825,63.8386 71.5,64.5 Z"/></g>
<g><path style="opacity:1" fill="#655b5e" d="M 81.5,66.5 C 81.1667,67.5 80.5,68.1667 79.5,68.5C 79.2671,66.9382 78.6005,65.6049 77.5,64.5C 78.5676,63.5655 79.901,63.2322 81.5,63.5C 81.5,64.5 81.5,65.5 81.5,66.5 Z"/></g>
<g><path style="opacity:1" fill="#d53b3b" d="M 32.5,44.5 C 33.1098,45.391 33.4431,46.391 33.5,47.5C 31.2911,48.896 29.7911,50.896 29,53.5C 27.5039,58.4946 26.0039,63.4946 24.5,68.5C 27.3738,69.864 29.7072,69.1973 31.5,66.5C 36.9756,65.9971 42.1422,64.6638 47,62.5C 47.8926,63.0814 48.8926,63.4148 50,63.5C 53.1243,61.7159 52.6243,60.7159 48.5,60.5C 48.5,59.1667 48.5,57.8333 48.5,56.5C 51.4789,58.8123 54.1456,61.4789 56.5,64.5C 53.3583,65.1674 50.3583,65.834 47.5,66.5C 39.1658,67.6106 31.1658,69.9439 23.5,73.5C 23.1758,69.4454 23.5091,65.4454 24.5,61.5C 25.8348,55.0508 28.5015,49.3841 32.5,44.5 Z"/></g>
<g><path style="opacity:1" fill="#c0676b" d="M 51.5,54.5 C 50.7611,54.369 50.0944,54.5357 49.5,55C 53.0954,59.1042 57.0954,62.6042 61.5,65.5C 61.5,66.1667 61.5,66.8333 61.5,67.5C 56.8592,66.8734 52.1925,66.5401 47.5,66.5C 50.3583,65.834 53.3583,65.1674 56.5,64.5C 54.1456,61.4789 51.4789,58.8123 48.5,56.5C 48.1961,55.8501 47.8627,55.1835 47.5,54.5C 48.9584,53.218 50.2918,53.218 51.5,54.5 Z"/></g>
<g><path style="opacity:1" fill="#120d0d" d="M 75.5,63.5 C 76.1667,63.8333 76.8333,64.1667 77.5,64.5C 78.6005,65.6049 79.2671,66.9382 79.5,68.5C 77.4131,67.4154 76.0798,65.7488 75.5,63.5 Z"/></g>
<g><path style="opacity:1" fill="#afabaa" d="M 71.5,64.5 C 70.386,67.4073 68.7193,67.9073 66.5,66C 67.9047,64.7308 69.5714,64.2308 71.5,64.5 Z"/></g>
<g><path style="opacity:1" fill="#f7f5f4" d="M 47.5,66.5 C 52.1925,66.5401 56.8592,66.8734 61.5,67.5C 61.8333,67.5 62.1667,67.5 62.5,67.5C 62.335,70.8499 62.5017,74.1832 63,77.5C 63.9344,76.1416 64.7677,74.8083 65.5,73.5C 65.3259,75.861 64.9926,78.1944 64.5,80.5C 62.7574,82.9375 60.7574,85.2709 58.5,87.5C 56.5767,87.795 54.9101,88.6283 53.5,90C 55.3008,90.3173 55.6341,90.984 54.5,92C 52.8739,91.8047 51.2072,91.8047 49.5,92C 48.0229,93.8121 46.6896,95.6455 45.5,97.5C 43.5487,98.6414 41.5487,98.6414 39.5,97.5C 39.1667,97.5 38.8333,97.5 38.5,97.5C 38.4257,95.5891 37.4257,94.4224 35.5,94C 36.7836,92.7025 36.6169,91.5358 35,90.5C 32.6892,91.3968 30.8559,92.7301 29.5,94.5C 28.8333,94.5 28.1667,94.5 27.5,94.5C 25.5475,89.3115 24.2142,83.9782 23.5,78.5C 23.5,76.8333 23.5,75.1667 23.5,73.5C 31.1658,69.9439 39.1658,67.6106 47.5,66.5 Z"/></g>
<g><path style="opacity:1" fill="#72310e" d="M 15.5,77.5 C 15.5,77.8333 15.5,78.1667 15.5,78.5C 12.1667,78.5 8.83333,78.5 5.5,78.5C 5.5,77.1667 5.5,75.8333 5.5,74.5C 13.0939,74.5302 13.4273,73.0302 6.5,70C 8.71477,68.9562 11.0481,68.2895 13.5,68C 11.0645,67.147 8.73119,66.147 6.5,65C 7.07124,63.7949 7.73791,62.6283 8.5,61.5C 10.8889,62.1805 13.2222,63.0138 15.5,64C 15.2144,67.0948 15.2144,70.2615 15.5,73.5C 15.0814,74.6721 14.4147,75.6721 13.5,76.5C 13.9569,77.2975 14.6236,77.6309 15.5,77.5 Z"/></g>
<g><path style="opacity:1" fill="#7f5153" d="M 85.5,68.5 C 86.8333,72.1667 86.8333,75.8333 85.5,79.5C 85.5,80.1667 85.1667,80.5 84.5,80.5C 83.4886,76.8878 83.3219,73.2211 84,69.5C 84.3826,68.944 84.8826,68.6107 85.5,68.5 Z"/></g>
<g><path style="opacity:1" fill="#cd6527" d="M 134.5,36.5 C 140.429,44.4353 143.929,53.4353 145,63.5C 145.821,70.6791 145.655,77.6791 144.5,84.5C 144.5,83.1667 144.5,81.8333 144.5,80.5C 140.445,80.1758 136.445,80.5091 132.5,81.5C 130.827,83.7615 131.16,85.4282 133.5,86.5C 133.232,88.099 133.566,89.4324 134.5,90.5C 134.833,91.1667 135.167,91.8333 135.5,92.5C 133.236,91.7814 130.903,91.448 128.5,91.5C 129.038,89.8828 129.371,88.2161 129.5,86.5C 129.517,84.4352 129.85,82.4352 130.5,80.5C 131.791,76.3989 131.791,72.3989 130.5,68.5C 129.695,60.5903 127.361,53.257 123.5,46.5C 124.5,46.5 125.5,46.5 126.5,46.5C 129.335,44.9183 132.335,43.585 135.5,42.5C 134.873,41.5832 134.539,40.5832 134.5,39.5C 134.5,38.5 134.5,37.5 134.5,36.5 Z"/></g>
<g><path style="opacity:1" fill="#672b0c" d="M 131.5,57.5 C 134.572,57.1826 137.572,57.5159 140.5,58.5C 136.631,62.3915 133.631,62.0582 131.5,57.5 Z"/></g>
<g><path style="opacity:1" fill="#72320f" d="M 133.5,45.5 C 134.978,45.238 136.311,45.5713 137.5,46.5C 133.113,49.9302 133.78,51.2635 139.5,50.5C 139.532,55.2129 137.199,56.7129 132.5,55C 133.34,53.3335 132.84,53.1669 131,54.5C 130.297,52.2199 129.131,50.2199 127.5,48.5C 129.444,47.1993 131.444,46.1993 133.5,45.5 Z"/></g>
<g><path style="opacity:1" fill="#443b35" d="M 4.5,51.5 C 0.908594,65.0759 0.575261,78.7426 3.5,92.5C 1.87003,90.9739 1.03669,88.9739 1,86.5C 0.333333,78.5 0.333333,70.5 1,62.5C 1.4985,58.5086 2.66517,54.842 4.5,51.5 Z"/></g>
<g><path style="opacity:1" fill="#676765" d="M 62.5,67.5 C 64.3407,68.4023 65.674,69.7356 66.5,71.5C 65.6618,71.8417 65.3284,72.5084 65.5,73.5C 64.7677,74.8083 63.9344,76.1416 63,77.5C 62.5017,74.1832 62.335,70.8499 62.5,67.5 Z"/></g>
<g><path style="opacity:1" fill="#f5dab7" d="M 20.5,68.5 C 21.1408,69.4822 21.8075,70.4822 22.5,71.5C 21.9747,72.1924 21.3081,72.6924 20.5,73C 23.1511,76.1877 22.4844,77.021 18.5,75.5C 17.9898,72.6122 18.6565,70.2789 20.5,68.5 Z"/></g>
<g><path style="opacity:1" fill="#1f1e1b" d="M 66.5,71.5 C 66.7215,73.6636 67.7215,75.3303 69.5,76.5C 67.2929,77.1303 65.6262,78.4637 64.5,80.5C 64.9926,78.1944 65.3259,75.861 65.5,73.5C 65.3284,72.5084 65.6618,71.8417 66.5,71.5 Z"/></g>
<g><path style="opacity:1" fill="#bbb7b7" d="M 66.5,71.5 C 68.7488,72.0798 70.4154,73.4131 71.5,75.5C 71.1583,76.3382 70.4916,76.6716 69.5,76.5C 67.7215,75.3303 66.7215,73.6636 66.5,71.5 Z"/></g>
<g><path style="opacity:1" fill="#827c7a" d="M 84.5,80.5 C 85.1667,80.5 85.5,80.1667 85.5,79.5C 86.3382,79.8417 86.6716,80.5084 86.5,81.5C 85.9569,81.56 85.6236,81.8933 85.5,82.5C 86.8814,83.8814 88.2147,85.2147 89.5,86.5C 88.5084,86.3284 87.8417,86.6618 87.5,87.5C 85.8868,87.0557 84.7202,86.0557 84,84.5C 83.6174,85.056 83.1174,85.3893 82.5,85.5C 82.4142,84.5041 82.7476,83.6708 83.5,83C 81.2553,80.2691 79.2553,77.4358 77.5,74.5C 79.5053,73.746 80.172,72.5793 79.5,71C 81.2027,69.4516 82.2027,70.1182 82.5,73C 80.0207,76.1112 80.6873,78.6112 84.5,80.5 Z"/></g>
<g><path style="opacity:1" fill="#211917" d="M 91.5,63.5 C 90.5,63.8333 89.8333,64.5 89.5,65.5C 87.5956,65.7376 86.2623,66.7376 85.5,68.5C 84.8826,68.6107 84.3826,68.944 84,69.5C 83.3219,73.2211 83.4886,76.8878 84.5,80.5C 80.6873,78.6112 80.0207,76.1112 82.5,73C 82.2027,70.1182 81.2027,69.4516 79.5,71C 80.172,72.5793 79.5053,73.746 77.5,74.5C 75.1638,73.4061 75.1638,72.0728 77.5,70.5C 78.5,70.1667 79.1667,69.5 79.5,68.5C 80.5,68.1667 81.1667,67.5 81.5,66.5C 84.1667,64.5 86.5,62.1667 88.5,59.5C 90.2722,57.7104 92.2722,56.3771 94.5,55.5C 96.2259,55.1854 97.8925,55.0187 99.5,55C 96.6286,57.7028 93.9619,60.5361 91.5,63.5 Z"/></g>
<g><path style="opacity:1" fill="#c8656b" d="M 89.5,65.5 C 87.4548,70.2145 86.9548,75.2145 88,80.5C 88.6708,81.2524 89.5041,81.5858 90.5,81.5C 91.1667,81.5 91.5,81.8333 91.5,82.5C 89.7085,82.634 88.0418,82.3007 86.5,81.5C 86.6716,80.5084 86.3382,79.8417 85.5,79.5C 86.8333,75.8333 86.8333,72.1667 85.5,68.5C 86.2623,66.7376 87.5956,65.7376 89.5,65.5 Z"/></g>
<g><path style="opacity:1" fill="#dd936b" d="M 125.5,67.5 C 126.507,68.8284 127.84,69.8284 129.5,70.5C 130.298,70.0431 130.631,69.3764 130.5,68.5C 131.791,72.3989 131.791,76.3989 130.5,80.5C 129.167,79.8333 127.833,79.1667 126.5,78.5C 125.833,77.8333 125.167,77.1667 124.5,76.5C 124.5,76.1667 124.5,75.8333 124.5,75.5C 125.473,73.0521 125.806,70.3854 125.5,67.5 Z"/></g>
<g><path style="opacity:1" fill="#eecead" d="M 126.5,70.5 C 130.254,71.8654 131.421,74.5321 130,78.5C 126.864,76.836 125.697,74.1693 126.5,70.5 Z"/></g>
<g><path style="opacity:1" fill="#7d3814" d="M 138.5,61.5 C 139.5,61.5 140.5,61.5 141.5,61.5C 141.33,62.8221 141.663,63.9887 142.5,65C 139.475,65.1335 136.808,66.1335 134.5,68C 137.623,68.2065 140.623,68.8732 143.5,70C 140.956,71.5626 140.956,73.0626 143.5,74.5C 140.972,75.8159 140.972,76.9826 143.5,78C 140.118,78.8236 136.784,78.657 133.5,77.5C 133.528,74.0027 133.694,70.336 134,66.5C 135.688,65.6753 135.855,64.6753 134.5,63.5C 135.949,62.8281 137.282,62.1614 138.5,61.5 Z"/></g>
<g><path style="opacity:1" fill="#c3474c" d="M 122.5,75.5 C 123.167,75.5 123.833,75.5 124.5,75.5C 124.5,75.8333 124.5,76.1667 124.5,76.5C 123.833,76.5 123.5,76.8333 123.5,77.5C 118.607,79.3533 113.607,81.02 108.5,82.5C 113.093,80.1805 117.759,77.8472 122.5,75.5 Z"/></g>
<g><path style="opacity:1" fill="#f7f3f1" d="M 123.5,77.5 C 124.267,78.172 124.934,79.0053 125.5,80C 124.33,86.2113 122.33,92.0446 119.5,97.5C 119.664,94.8127 119.497,92.146 119,89.5C 117.698,90.0848 116.531,90.7515 115.5,91.5C 114.325,91.281 113.325,91.6143 112.5,92.5C 113.807,93.865 113.807,95.1984 112.5,96.5C 111.662,96.8417 111.328,97.5084 111.5,98.5C 110.105,97.1854 109.105,97.5188 108.5,99.5C 107.833,99.5 107.5,99.8333 107.5,100.5C 106.167,99.5 104.833,98.5 103.5,97.5C 100.274,93.341 96.2739,90.0076 91.5,87.5C 90.8333,87.1667 90.1667,86.8333 89.5,86.5C 88.2147,85.2147 86.8814,83.8814 85.5,82.5C 85.6236,81.8933 85.9569,81.56 86.5,81.5C 88.0418,82.3007 89.7085,82.634 91.5,82.5C 97.0233,83.7109 102.69,83.7109 108.5,82.5C 113.607,81.02 118.607,79.3533 123.5,77.5 Z"/></g>
<g><path style="opacity:1" fill="#f4dab6" d="M 126.5,78.5 C 127.833,79.1667 129.167,79.8333 130.5,80.5C 129.85,82.4352 129.517,84.4352 129.5,86.5C 127.983,86.4894 126.816,85.8228 126,84.5C 125.82,82.5116 125.986,80.5116 126.5,78.5 Z"/></g>
<g><path style="opacity:1" fill="#232323" d="M 76.5,79.5 C 74.9648,82.2316 73.1315,84.8982 71,87.5C 70.5357,86.9056 70.369,86.2389 70.5,85.5C 71.5,85.1667 72.1667,84.5 72.5,83.5C 72.5,82.5 72.5,81.5 72.5,80.5C 73.9587,80.5674 75.2921,80.2341 76.5,79.5 Z"/></g>
<g><path style="opacity:1" fill="#515151" d="M 71.5,75.5 C 73.0269,75.427 74.0269,76.0937 74.5,77.5C 72.1969,79.3247 69.8636,81.1581 67.5,83C 68.9617,84.6279 70.6283,84.7946 72.5,83.5C 72.1667,84.5 71.5,85.1667 70.5,85.5C 69.5222,85.811 68.8555,86.4777 68.5,87.5C 69.373,89.4134 70.373,91.2467 71.5,93C 71.1667,93.1667 70.8333,93.3333 70.5,93.5C 67.6546,91.0794 65.8212,88.0794 65,84.5C 63.955,85.3734 63.1217,86.3734 62.5,87.5C 60.9382,87.7329 59.6049,88.3995 58.5,89.5C 58.5,88.8333 58.5,88.1667 58.5,87.5C 60.7574,85.2709 62.7574,82.9375 64.5,80.5C 65.6262,78.4637 67.2929,77.1303 69.5,76.5C 70.4916,76.6716 71.1583,76.3382 71.5,75.5 Z"/></g>
<g><path style="opacity:1" fill="#cac9c9" d="M 74.5,77.5 C 75.1667,78.1667 75.8333,78.8333 76.5,79.5C 75.2921,80.2341 73.9587,80.5674 72.5,80.5C 72.5,81.5 72.5,82.5 72.5,83.5C 70.6283,84.7946 68.9617,84.6279 67.5,83C 69.8636,81.1581 72.1969,79.3247 74.5,77.5 Z"/></g>
<g><path style="opacity:1" fill="#d66422" d="M 4.5,84.5 C 6.01094,85.5025 7.67761,86.1692 9.5,86.5C 11.2789,84.6565 13.6122,83.9898 16.5,84.5C 16.2865,86.1439 16.6198,87.6439 17.5,89C 16.1068,90.1711 15.2735,91.6711 15,93.5C 12.4824,94.0609 9.98237,94.3943 7.5,94.5C 8.30937,96.0709 8.64271,97.7376 8.5,99.5C 9.83333,99.5 11.1667,99.5 12.5,99.5C 13.1047,101.026 14.2714,102.026 16,102.5C 15.3391,104.035 15.0058,105.702 15,107.5C 17.1293,106.137 17.6293,106.471 16.5,108.5C 18.4497,111.405 20.1164,114.405 21.5,117.5C 22.8221,117.67 23.9887,117.337 25,116.5C 25.9192,118.367 26.4192,120.367 26.5,122.5C 28.1667,124 29.8333,125.5 31.5,127C 32.7839,127.684 33.9505,127.517 35,126.5C 35.6172,127.449 35.4506,128.282 34.5,129C 36.7501,129.611 38.4168,130.944 39.5,133C 41.2182,133.346 42.8849,133.846 44.5,134.5C 45.1924,133.975 45.6924,133.308 46,132.5C 46.2734,134.101 46.7734,135.601 47.5,137C 49.5,137.333 51.5,137.667 53.5,138C 54.9423,138.377 55.9423,139.21 56.5,140.5C 54.6214,140.393 54.2881,140.893 55.5,142C 57.8516,142.24 59.8516,143.073 61.5,144.5C 46.0083,141.838 32.8417,134.838 22,123.5C 17.3333,116.167 12.6667,108.833 8,101.5C 5.87165,96.0247 4.70498,90.358 4.5,84.5 Z"/></g>
<g><path style="opacity:1" fill="#793b16" d="M 9.5,86.5 C 15.1548,85.1482 16.4881,86.9815 13.5,92C 12.2161,92.6838 11.0495,92.5171 10,91.5C 9.50649,89.8659 9.33982,88.1992 9.5,86.5 Z"/></g>
<g><path style="opacity:1" fill="#0e0c0f" d="M 87.5,87.5 C 87.8417,86.6618 88.5084,86.3284 89.5,86.5C 90.1667,86.8333 90.8333,87.1667 91.5,87.5C 91.6716,88.4916 91.3382,89.1583 90.5,89.5C 89.5,88.8333 88.5,88.1667 87.5,87.5 Z"/></g>
<g><path style="opacity:1" fill="#873a11" d="M 135.5,92.5 C 135.167,91.8333 134.833,91.1667 134.5,90.5C 133.566,89.4324 133.232,88.099 133.5,86.5C 136.555,85.0194 138.889,85.8528 140.5,89C 139.929,90.2051 139.262,91.3717 138.5,92.5C 137.313,93.6527 136.313,93.6527 135.5,92.5 Z"/></g>
<g><path style="opacity:1" fill="#d6c0b0" d="M 11.5,87.5 C 13.4646,87.9483 13.7979,88.9483 12.5,90.5C 11.6143,89.675 11.281,88.675 11.5,87.5 Z"/></g>
<g><path style="opacity:1" fill="#987767" d="M 134.5,90.5 C 134.5,89.5 134.5,88.5 134.5,87.5C 135.833,87.5 137.167,87.5 138.5,87.5C 138.5,88.5 138.5,89.5 138.5,90.5C 137.167,90.5 135.833,90.5 134.5,90.5 Z"/></g>
<g><path style="opacity:1" fill="#ea610c" d="M 19.5,86.5 C 20.475,89.0667 21.1417,91.7334 21.5,94.5C 21.7148,96.1788 21.0481,97.1788 19.5,97.5C 16.8478,97.4095 14.5145,98.0762 12.5,99.5C 11.1667,99.5 9.83333,99.5 8.5,99.5C 8.64271,97.7376 8.30937,96.0709 7.5,94.5C 9.98237,94.3943 12.4824,94.0609 15,93.5C 15.2735,91.6711 16.1068,90.1711 17.5,89C 16.6198,87.6439 16.2865,86.1439 16.5,84.5C 13.6122,83.9898 11.2789,84.6565 9.5,86.5C 7.67761,86.1692 6.01094,85.5025 4.5,84.5C 4.5,83.1667 4.5,81.8333 4.5,80.5C 8.45777,80.7489 12.1244,80.0823 15.5,78.5C 15.5,78.1667 15.5,77.8333 15.5,77.5C 16.8367,79.9164 18.17,82.9164 19.5,86.5 Z"/></g>
<g><path style="opacity:1" fill="#787878" d="M 58.5,87.5 C 58.5,88.1667 58.5,88.8333 58.5,89.5C 58.244,91.9124 59.244,93.5791 61.5,94.5C 61.2907,95.086 60.9574,95.586 60.5,96C 57.953,95.6607 55.453,94.8274 53,93.5C 51.0232,95.8023 48.6899,97.8023 46,99.5C 45.5357,98.9056 45.369,98.2389 45.5,97.5C 46.6896,95.6455 48.0229,93.8121 49.5,92C 51.2072,91.8047 52.8739,91.8047 54.5,92C 55.6341,90.984 55.3008,90.3173 53.5,90C 54.9101,88.6283 56.5767,87.795 58.5,87.5 Z"/></g>
<g><path style="opacity:1" fill="#7d7d7f" d="M 91.5,87.5 C 96.2739,90.0076 100.274,93.341 103.5,97.5C 103.483,99.0281 102.816,99.5281 101.5,99C 99.6449,97.1449 97.8116,95.3116 96,93.5C 93.2953,94.9391 90.462,95.9391 87.5,96.5C 88.8011,94.3281 89.8011,91.9948 90.5,89.5C 91.3382,89.1583 91.6716,88.4916 91.5,87.5 Z"/></g>
<g><path style="opacity:1" fill="#e4c4a3" d="M 123.5,77.5 C 123.5,76.8333 123.833,76.5 124.5,76.5C 125.167,77.1667 125.833,77.8333 126.5,78.5C 125.986,80.5116 125.82,82.5116 126,84.5C 126.816,85.8228 127.983,86.4894 129.5,86.5C 129.371,88.2161 129.038,89.8828 128.5,91.5C 127.377,94.8597 126.043,98.1931 124.5,101.5C 121.471,104.373 118.971,107.706 117,111.5C 112.952,116.051 108.452,120.051 103.5,123.5C 99.211,126.097 94.5443,127.764 89.5,128.5C 88.7611,128.631 88.0944,128.464 87.5,128C 88.1667,126.667 88.8333,125.333 89.5,124C 89.2716,123.601 88.9382,123.435 88.5,123.5C 102.444,119.229 112.778,110.562 119.5,97.5C 122.33,92.0446 124.33,86.2113 125.5,80C 124.934,79.0053 124.267,78.172 123.5,77.5 Z"/></g>
<g><path style="opacity:1" fill="#a6a6a6" d="M 76.5,79.5 C 79.5899,80.2093 80.9232,81.876 80.5,84.5C 78.9102,84.6282 77.5769,85.2949 76.5,86.5C 77.5896,87.6086 77.5896,88.6086 76.5,89.5C 73.1512,88.1697 72.8179,88.6697 75.5,91C 73.3952,92.3354 72.7286,94.0021 73.5,96C 72.2559,96.4561 71.4226,95.9561 71,94.5C 70.3162,95.7839 70.4829,96.9505 71.5,98C 69.8426,98.2315 68.5093,99.0648 67.5,100.5C 67.5086,98.6916 67.0086,97.0249 66,95.5C 65.6667,96.1667 65.3333,96.8333 65,97.5C 64.2797,95.8876 64.4464,94.3876 65.5,93C 64.9011,91.3775 64.2344,89.8775 63.5,88.5C 63.5,87.8333 63.1667,87.5 62.5,87.5C 63.1217,86.3734 63.955,85.3734 65,84.5C 65.8212,88.0794 67.6546,91.0794 70.5,93.5C 70.8333,93.3333 71.1667,93.1667 71.5,93C 70.373,91.2467 69.373,89.4134 68.5,87.5C 68.8555,86.4777 69.5222,85.811 70.5,85.5C 70.369,86.2389 70.5357,86.9056 71,87.5C 73.1315,84.8982 74.9648,82.2316 76.5,79.5 Z"/></g>
<g><path style="opacity:1" fill="#f2f0ed" d="M 87.5,87.5 C 88.5,88.1667 89.5,88.8333 90.5,89.5C 89.8011,91.9948 88.8011,94.3281 87.5,96.5C 90.462,95.9391 93.2953,94.9391 96,93.5C 97.8116,95.3116 99.6449,97.1449 101.5,99C 102.816,99.5281 103.483,99.0281 103.5,97.5C 104.833,98.5 106.167,99.5 107.5,100.5C 107.5,99.8333 107.833,99.5 108.5,99.5C 110.394,100.048 112.06,101.048 113.5,102.5C 113.833,102.167 114.167,101.833 114.5,101.5C 113.23,100.712 112.23,99.7124 111.5,98.5C 111.328,97.5084 111.662,96.8417 112.5,96.5C 112.694,98.9118 114.027,99.9118 116.5,99.5C 116.449,97.4305 117.115,95.5971 118.5,94C 117.279,93.7537 116.279,92.9204 115.5,91.5C 116.531,90.7515 117.698,90.0848 119,89.5C 119.497,92.146 119.664,94.8127 119.5,97.5C 112.778,110.562 102.444,119.229 88.5,123.5C 60.7503,129.123 40.417,119.456 27.5,94.5C 28.1667,94.5 28.8333,94.5 29.5,94.5C 31.0843,95.3818 32.751,96.2152 34.5,97C 32.7295,97.5354 32.3961,98.3687 33.5,99.5C 34.8498,98.0499 36.5165,97.3832 38.5,97.5C 36.2783,98.5361 35.1116,100.203 35,102.5C 37.2003,101.349 38.7003,99.6825 39.5,97.5C 41.5487,98.6414 43.5487,98.6414 45.5,97.5C 45.369,98.2389 45.5357,98.9056 46,99.5C 48.6899,97.8023 51.0232,95.8023 53,93.5C 55.453,94.8274 57.953,95.6607 60.5,96C 60.9574,95.586 61.2907,95.086 61.5,94.5C 59.244,93.5791 58.244,91.9124 58.5,89.5C 59.6049,88.3995 60.9382,87.7329 62.5,87.5C 63.1667,87.5 63.5,87.8333 63.5,88.5C 62.3622,91.3035 62.1955,94.3035 63,97.5C 64.2708,98.8825 65.7708,99.8825 67.5,100.5C 68.517,102.911 70.1837,104.578 72.5,105.5C 73.7767,107.914 75.4434,108.081 77.5,106C 80.3333,103.167 83.1667,100.333 86,97.5C 87.3242,92.7885 86.1576,89.1218 82.5,86.5C 82.5,86.1667 82.5,85.8333 82.5,85.5C 83.1174,85.3893 83.6174,85.056 84,84.5C 84.7202,86.0557 85.8868,87.0557 87.5,87.5 Z"/></g>
<g><path style="opacity:1" fill="#6e6d6c" d="M 115.5,91.5 C 116.279,92.9204 117.279,93.7537 118.5,94C 117.115,95.5971 116.449,97.4305 116.5,99.5C 114.027,99.9118 112.694,98.9118 112.5,96.5C 113.807,95.1984 113.807,93.865 112.5,92.5C 113.325,91.6143 114.325,91.281 115.5,91.5 Z"/></g>
<g><path style="opacity:1" fill="#e36113" d="M 144.5,84.5 C 144.434,90.5016 143.101,96.1682 140.5,101.5C 139.163,102.315 138.163,103.482 137.5,105C 136.563,105.692 135.897,105.525 135.5,104.5C 134.571,103.685 133.571,102.852 132.5,102C 133.938,101.781 135.271,101.281 136.5,100.5C 135.098,98.8537 133.264,97.8537 131,97.5C 128.533,99.7421 126.7,102.409 125.5,105.5C 124.624,105.631 123.957,105.298 123.5,104.5C 124.127,103.583 124.461,102.583 124.5,101.5C 126.043,98.1931 127.377,94.8597 128.5,91.5C 130.903,91.448 133.236,91.7814 135.5,92.5C 136.313,93.6527 137.313,93.6527 138.5,92.5C 139.262,91.3717 139.929,90.2051 140.5,89C 138.889,85.8528 136.555,85.0194 133.5,86.5C 131.16,85.4282 130.827,83.7615 132.5,81.5C 136.445,80.5091 140.445,80.1758 144.5,80.5C 144.5,81.8333 144.5,83.1667 144.5,84.5 Z"/></g>
<g><path style="opacity:1" fill="#686668" d="M 38.5,97.5 C 36.5165,97.3832 34.8498,98.0499 33.5,99.5C 32.3961,98.3687 32.7295,97.5354 34.5,97C 32.751,96.2152 31.0843,95.3818 29.5,94.5C 30.8559,92.7301 32.6892,91.3968 35,90.5C 36.6169,91.5358 36.7836,92.7025 35.5,94C 37.4257,94.4224 38.4257,95.5891 38.5,97.5 Z"/></g>
<g><path style="opacity:1" fill="#515151" d="M 63.5,88.5 C 64.2344,89.8775 64.9011,91.3775 65.5,93C 64.4464,94.3876 64.2797,95.8876 65,97.5C 65.3333,96.8333 65.6667,96.1667 66,95.5C 67.0086,97.0249 67.5086,98.6916 67.5,100.5C 65.7708,99.8825 64.2708,98.8825 63,97.5C 62.1955,94.3035 62.3622,91.3035 63.5,88.5 Z"/></g>
<g><path style="opacity:1" fill="#413f3a" d="M 3.5,93.5 C 4.4582,95.3024 5.12487,97.3024 5.5,99.5C 3.95721,98.2642 2.95721,96.5976 2.5,94.5C 2.62358,93.8933 2.95691,93.56 3.5,93.5 Z"/></g>
<g><path style="opacity:1" fill="#6c6b6b" d="M 80.5,84.5 C 81.1667,85.1667 81.8333,85.8333 82.5,86.5C 86.1576,89.1218 87.3242,92.7885 86,97.5C 83.1667,100.333 80.3333,103.167 77.5,106C 75.4434,108.081 73.7767,107.914 72.5,105.5C 70.1837,104.578 68.517,102.911 67.5,100.5C 68.5093,99.0648 69.8426,98.2315 71.5,98C 70.4829,96.9505 70.3162,95.7839 71,94.5C 71.4226,95.9561 72.2559,96.4561 73.5,96C 72.7286,94.0021 73.3952,92.3354 75.5,91C 72.8179,88.6697 73.1512,88.1697 76.5,89.5C 77.5896,88.6086 77.5896,87.6086 76.5,86.5C 77.5769,85.2949 78.9102,84.6282 80.5,84.5 Z"/></g>
<g><path style="opacity:1" fill="#afb0af" d="M 80.5,89.5 C 81.8471,90.1712 83.0138,90.1712 84,89.5C 84.5288,91.5847 84.0288,93.418 82.5,95C 82.8919,96.0105 83.5585,96.5105 84.5,96.5C 83.5197,97.9814 82.353,99.3147 81,100.5C 80.3162,99.2161 80.4829,98.0495 81.5,97C 79.4921,96.6097 77.4921,95.4431 75.5,93.5C 76.5217,92.646 77.3551,91.646 78,90.5C 79.9421,95.8433 80.7755,95.51 80.5,89.5 Z"/></g>
<g><path style="opacity:1" fill="#454849" d="M 111.5,98.5 C 112.23,99.7124 113.23,100.712 114.5,101.5C 114.167,101.833 113.833,102.167 113.5,102.5C 112.06,101.048 110.394,100.048 108.5,99.5C 109.105,97.5188 110.105,97.1854 111.5,98.5 Z"/></g>
<g><path style="opacity:1" fill="#50504b" d="M 38.5,97.5 C 38.8333,97.5 39.1667,97.5 39.5,97.5C 38.7003,99.6825 37.2003,101.349 35,102.5C 35.1116,100.203 36.2783,98.5361 38.5,97.5 Z"/></g>
<g><path style="opacity:1" fill="#413a3c" d="M 5.5,99.5 C 6.43448,100.568 6.76781,101.901 6.5,103.5C 4.89059,102.335 4.55725,101.001 5.5,99.5 Z"/></g>
<g><path style="opacity:1" fill="#43423a" d="M 40.5,100.5 C 41.7733,101.077 41.7733,101.743 40.5,102.5C 39.3801,103.833 38.0468,104.333 36.5,104C 37.7305,102.595 39.0639,101.429 40.5,100.5 Z"/></g>
<g><path style="opacity:1" fill="#585752" d="M 107.5,100.5 C 111.269,101.424 112.269,103.59 110.5,107C 107.906,107.449 105.906,106.449 104.5,104C 105,103.5 105.5,103 106,102.5C 107.03,104.776 108.53,105.443 110.5,104.5C 109.174,103.358 108.174,102.024 107.5,100.5 Z"/></g>
<g><path style="opacity:1" fill="#c3c3c3" d="M 72.5,105.5 C 71.2373,98.4134 71.904,98.08 74.5,104.5C 75.2508,103.624 75.7508,102.624 76,101.5C 77.8715,104.821 76.7049,106.155 72.5,105.5 Z"/></g>
<g><path style="opacity:1" fill="#d66721" d="M 21.5,94.5 C 23.2822,98.0645 25.1156,101.731 27,105.5C 30.1445,108.46 32.6445,111.794 34.5,115.5C 39.2738,118.388 43.9405,121.555 48.5,125C 50.8076,125.991 53.1409,126.824 55.5,127.5C 57.7791,128.651 60.1124,129.651 62.5,130.5C 61.5,130.5 60.5,130.5 59.5,130.5C 59.5,133.167 59.5,135.833 59.5,138.5C 58.5318,136.393 58.1984,134.059 58.5,131.5C 56.076,131.808 53.7427,131.474 51.5,130.5C 36.3203,123.657 25.6536,112.657 19.5,97.5C 21.0481,97.1788 21.7148,96.1788 21.5,94.5 Z"/></g>
<g><path style="opacity:1" fill="#753212" d="M 135.5,104.5 C 133.462,106.035 131.795,108.035 130.5,110.5C 129.186,109.687 128.019,108.687 127,107.5C 126.221,109.906 127.054,111.573 129.5,112.5C 129.167,112.833 128.833,113.167 128.5,113.5C 126.672,112.205 124.672,111.205 122.5,110.5C 123.763,108.971 124.763,107.305 125.5,105.5C 126.7,102.409 128.533,99.7421 131,97.5C 133.264,97.8537 135.098,98.8537 136.5,100.5C 135.271,101.281 133.938,101.781 132.5,102C 133.571,102.852 134.571,103.685 135.5,104.5 Z"/></g>
<g><path style="opacity:1" fill="#d26725" d="M 124.5,101.5 C 124.461,102.583 124.127,103.583 123.5,104.5C 123.957,105.298 124.624,105.631 125.5,105.5C 124.763,107.305 123.763,108.971 122.5,110.5C 124.672,111.205 126.672,112.205 128.5,113.5C 128.833,113.167 129.167,112.833 129.5,112.5C 127.054,111.573 126.221,109.906 127,107.5C 128.019,108.687 129.186,109.687 130.5,110.5C 131.795,108.035 133.462,106.035 135.5,104.5C 135.897,105.525 136.563,105.692 137.5,105C 138.163,103.482 139.163,102.315 140.5,101.5C 135.726,113.712 128.06,123.712 117.5,131.5C 118.354,129.965 118.354,128.632 117.5,127.5C 117.539,126.417 117.873,125.417 118.5,124.5C 122.087,122.52 125.087,119.853 127.5,116.5C 125.578,115.289 123.745,113.956 122,112.5C 121.837,114.387 122.671,115.887 124.5,117C 123.013,120.124 121.347,120.124 119.5,117C 115.458,117.04 113.292,119.207 113,123.5C 109.799,123.234 109.633,124.4 112.5,127C 113.448,127.483 114.448,127.649 115.5,127.5C 115.631,128.376 115.298,129.043 114.5,129.5C 110.693,128.191 108.526,125.524 108,121.5C 106.67,122.582 105.17,123.249 103.5,123.5C 108.452,120.051 112.952,116.051 117,111.5C 118.971,107.706 121.471,104.373 124.5,101.5 Z"/></g>
<g><path style="opacity:1" fill="#793715" d="M 19.5,97.5 C 25.6536,112.657 36.3203,123.657 51.5,130.5C 53.7427,131.474 56.076,131.808 58.5,131.5C 58.1984,134.059 58.5318,136.393 59.5,138.5C 60.0431,138.56 60.3764,138.893 60.5,139.5C 59.3112,140.429 57.9778,140.762 56.5,140.5C 55.9423,139.21 54.9423,138.377 53.5,138C 51.5,137.667 49.5,137.333 47.5,137C 46.7734,135.601 46.2734,134.101 46,132.5C 45.6924,133.308 45.1924,133.975 44.5,134.5C 42.8849,133.846 41.2182,133.346 39.5,133C 38.4168,130.944 36.7501,129.611 34.5,129C 35.4506,128.282 35.6172,127.449 35,126.5C 33.9505,127.517 32.7839,127.684 31.5,127C 29.8333,125.5 28.1667,124 26.5,122.5C 26.4192,120.367 25.9192,118.367 25,116.5C 23.9887,117.337 22.8221,117.67 21.5,117.5C 20.1164,114.405 18.4497,111.405 16.5,108.5C 17.6293,106.471 17.1293,106.137 15,107.5C 15.0058,105.702 15.3391,104.035 16,102.5C 14.2714,102.026 13.1047,101.026 12.5,99.5C 14.5145,98.0762 16.8478,97.4095 19.5,97.5 Z"/></g>
<g><path style="opacity:1" fill="#e1c1a0" d="M 18.5,76.5 C 20.0495,77.4408 21.7162,78.1075 23.5,78.5C 24.2142,83.9782 25.5475,89.3115 27.5,94.5C 40.417,119.456 60.7503,129.123 88.5,123.5C 88.9382,123.435 89.2716,123.601 89.5,124C 88.8333,125.333 88.1667,126.667 87.5,128C 88.0944,128.464 88.7611,128.631 89.5,128.5C 88.3915,129.29 87.0581,129.79 85.5,130C 79.5092,130.499 73.5092,130.666 67.5,130.5C 63.7607,128.898 59.7607,127.898 55.5,127.5C 53.1409,126.824 50.8076,125.991 48.5,125C 43.9405,121.555 39.2738,118.388 34.5,115.5C 32.6445,111.794 30.1445,108.46 27,105.5C 25.1156,101.731 23.2822,98.0645 21.5,94.5C 21.1417,91.7334 20.475,89.0667 19.5,86.5C 18.7929,83.2139 18.4595,79.8806 18.5,76.5 Z"/></g>
<g><path style="opacity:1" fill="#36312d" d="M 147.5,63.5 C 151.462,97.078 139.128,122.911 110.5,141C 99.8924,145.901 88.8924,148.734 77.5,149.5C 75.1667,149.5 72.8333,149.5 70.5,149.5C 46.6416,147.32 27.475,136.653 13,117.5C 10.0118,113.192 7.84509,108.525 6.5,103.5C 26.2547,140.268 56.5881,153.768 97.5,144C 133.293,129.281 149.959,102.447 147.5,63.5 Z"/></g>
<g><path style="opacity:1" fill="#e46212" d="M 115.5,127.5 C 116.167,127.5 116.833,127.5 117.5,127.5C 118.354,128.632 118.354,129.965 117.5,131.5C 116.5,132.167 115.5,132.833 114.5,133.5C 111.996,134.639 109.33,135.306 106.5,135.5C 106.343,134.127 106.51,132.793 107,131.5C 108.342,132.902 109.176,132.569 109.5,130.5C 108.637,128.128 107.471,128.128 106,130.5C 105.329,129.748 104.496,129.414 103.5,129.5C 102.77,127.955 101.437,127.122 99.5,127C 101.093,126.051 102.426,124.885 103.5,123.5C 105.17,123.249 106.67,122.582 108,121.5C 108.526,125.524 110.693,128.191 114.5,129.5C 115.298,129.043 115.631,128.376 115.5,127.5 Z"/></g>
<g><path style="opacity:1" fill="#eea56c" d="M 55.5,127.5 C 59.7607,127.898 63.7607,128.898 67.5,130.5C 65.8333,130.5 64.1667,130.5 62.5,130.5C 60.1124,129.651 57.7791,128.651 55.5,127.5 Z"/></g>
<g><path style="opacity:1" fill="#666364" d="M 63.5,117.5 C 64.2679,118.263 64.7679,119.263 65,120.5C 66,116.5 67,116.5 68,120.5C 69.4177,117.999 70.4177,118.332 71,121.5C 72.0432,117.774 72.5432,118.107 72.5,122.5C 68.9356,122.849 65.6022,122.183 62.5,120.5C 63.1272,119.583 63.4606,118.583 63.5,117.5 Z"/></g>
<g><path style="opacity:1" fill="#777470" d="M 83.5,116.5 C 83.8966,115.475 84.5632,115.308 85.5,116C 86.2598,117.441 86.9264,118.941 87.5,120.5C 85.0671,122.054 82.4005,122.72 79.5,122.5C 79.5,120.833 79.5,119.167 79.5,117.5C 81.9115,117.137 83.4115,118.137 84,120.5C 84.765,118.934 84.5983,117.601 83.5,116.5 Z"/></g>
<g><path style="opacity:1" fill="#713514" d="M 117.5,127.5 C 116.833,127.5 116.167,127.5 115.5,127.5C 114.448,127.649 113.448,127.483 112.5,127C 109.633,124.4 109.799,123.234 113,123.5C 113.292,119.207 115.458,117.04 119.5,117C 121.347,120.124 123.013,120.124 124.5,117C 122.671,115.887 121.837,114.387 122,112.5C 123.745,113.956 125.578,115.289 127.5,116.5C 125.087,119.853 122.087,122.52 118.5,124.5C 117.873,125.417 117.539,126.417 117.5,127.5 Z"/></g>
<g><path style="opacity:1" fill="#535250" d="M 76.5,116.5 C 78.3079,117.918 78.9746,119.918 78.5,122.5C 77.1667,122.5 75.8333,122.5 74.5,122.5C 74.4568,118.107 74.9568,117.774 76,121.5C 76.4935,119.866 76.6602,118.199 76.5,116.5 Z"/></g>
<g><path style="opacity:1" fill="#535555" d="M 57.5,113.5 C 58.8589,114.007 59.8589,115.007 60.5,116.5C 61.3957,115.494 62.0623,115.494 62.5,116.5C 61.5478,120.855 60.3812,121.188 59,117.5C 58.1739,119.405 57.0072,119.739 55.5,118.5C 56.4565,116.925 57.1231,115.258 57.5,113.5 Z"/></g>
<g><path style="opacity:1" fill="#585858" d="M 99.5,111.5 C 101.29,113.909 100.79,115.576 98,116.5C 97.0546,116.095 96.3879,115.428 96,114.5C 93.3367,120.768 90.8367,120.768 88.5,114.5C 88.9569,113.702 89.6236,113.369 90.5,113.5C 91.8728,118.745 93.2061,118.745 94.5,113.5C 95.8195,112.058 97.4862,111.392 99.5,111.5 Z"/></g>
<g><path style="opacity:1" fill="#9d9b9b" d="M 94.5,113.5 C 93.2061,118.745 91.8728,118.745 90.5,113.5C 91.8333,112.167 93.1667,112.167 94.5,113.5 Z"/></g>
<g><path style="opacity:1" fill="#535454" d="M 49.5,111.5 C 52.7643,111.726 53.7643,113.226 52.5,116C 48.8914,116.226 47.8914,114.726 49.5,111.5 Z"/></g>
<g><path style="opacity:1" fill="#656564" d="M 42.5,105.5 C 45.966,104.525 46.2993,105.525 43.5,108.5C 44.9667,108.723 46.4667,109.056 48,109.5C 48.3876,111.076 47.8876,112.409 46.5,113.5C 42.3887,112.027 41.0554,109.361 42.5,105.5 Z"/></g>
<g><path style="opacity:1" fill="#797876" d="M 99.5,111.5 C 101.586,107.683 103.586,107.683 105.5,111.5C 103.465,114.14 101.465,114.14 99.5,111.5 Z"/></g>
<g><path style="opacity:1" fill="#55574e" d="M 42.5,105.5 C 41.5178,106.141 40.5178,106.807 39.5,107.5C 38.5714,105.678 39.2381,104.345 41.5,103.5C 42.2975,103.957 42.6309,104.624 42.5,105.5 Z"/></g>
<g><path style="opacity:1" fill="#743613" d="M 69.5,134.5 C 71.4286,134.231 73.0953,134.731 74.5,136C 74.2795,137.799 73.9461,139.632 73.5,141.5C 72.3112,142.429 70.9778,142.762 69.5,142.5C 69.5,139.833 69.5,137.167 69.5,134.5 Z"/></g>
<g><path style="opacity:1" fill="#d76520" d="M 103.5,123.5 C 102.426,124.885 101.093,126.051 99.5,127C 101.437,127.122 102.77,127.955 103.5,129.5C 104.496,129.414 105.329,129.748 106,130.5C 107.471,128.128 108.637,128.128 109.5,130.5C 109.176,132.569 108.342,132.902 107,131.5C 106.51,132.793 106.343,134.127 106.5,135.5C 109.33,135.306 111.996,134.639 114.5,133.5C 99.0147,143.917 82.0147,147.583 63.5,144.5C 66.0101,144.946 68.0101,144.28 69.5,142.5C 70.9778,142.762 72.3112,142.429 73.5,141.5C 73.9461,139.632 74.2795,137.799 74.5,136C 73.0953,134.731 71.4286,134.231 69.5,134.5C 69.8039,133.85 70.1373,133.183 70.5,132.5C 69.3984,131.824 68.3984,131.158 67.5,130.5C 73.5092,130.666 79.5092,130.499 85.5,130C 87.0581,129.79 88.3915,129.29 89.5,128.5C 94.5443,127.764 99.211,126.097 103.5,123.5 Z"/></g>
<g><path style="opacity:1" fill="#a24d1f" d="M 83.5,134.5 C 83.8333,134.5 84.1667,134.5 84.5,134.5C 84.8333,136.5 85.1667,138.5 85.5,140.5C 90.0407,140.669 90.374,140.002 86.5,138.5C 87.7111,137.28 87.7111,136.113 86.5,135C 87.7932,134.51 89.1266,134.343 90.5,134.5C 90.33,135.822 90.6634,136.989 91.5,138C 94.5071,138.301 97.5071,138.135 100.5,137.5C 95.215,140.03 89.5483,141.364 83.5,141.5C 83.5,139.167 83.5,136.833 83.5,134.5 Z"/></g>
<g><path style="opacity:1" fill="#6b351b" d="M 83.5,134.5 C 83.5,136.833 83.5,139.167 83.5,141.5C 80.8728,142.092 78.2062,142.425 75.5,142.5C 75.5,139.833 75.5,137.167 75.5,134.5C 78.2556,135.254 80.9223,135.254 83.5,134.5 Z"/></g>
<g><path style="opacity:1" fill="#713110" d="M 103.5,129.5 C 104.73,131.297 105.396,133.297 105.5,135.5C 103.302,135.12 101.635,135.787 100.5,137.5C 97.5071,138.135 94.5071,138.301 91.5,138C 90.6634,136.989 90.33,135.822 90.5,134.5C 89.1266,134.343 87.7932,134.51 86.5,135C 87.7111,136.113 87.7111,137.28 86.5,138.5C 90.374,140.002 90.0407,140.669 85.5,140.5C 85.1667,138.5 84.8333,136.5 84.5,134.5C 90.3972,132.812 96.2305,130.812 102,128.5C 102.383,129.056 102.883,129.389 103.5,129.5 Z"/></g>
<g><path style="opacity:1" fill="#e7600d" d="M 62.5,130.5 C 64.1667,130.5 65.8333,130.5 67.5,130.5C 68.3984,131.158 69.3984,131.824 70.5,132.5C 70.1373,133.183 69.8039,133.85 69.5,134.5C 69.5,137.167 69.5,139.833 69.5,142.5C 68.0101,144.28 66.0101,144.946 63.5,144.5C 62.8333,144.5 62.1667,144.5 61.5,144.5C 59.8516,143.073 57.8516,142.24 55.5,142C 54.2881,140.893 54.6214,140.393 56.5,140.5C 57.9778,140.762 59.3112,140.429 60.5,139.5C 60.3764,138.893 60.0431,138.56 59.5,138.5C 59.5,135.833 59.5,133.167 59.5,130.5C 60.5,130.5 61.5,130.5 62.5,130.5 Z"/></g>
</svg>
